<svg xmlns="http://www.w3.org/2000/svg" version="1.1" xmlns:xlink="http://www.w3.org/1999/xlink" xmlns:svgjs="http://svgjs.dev/svgjs" width="100%" height="100%" viewBox="0 0 1000 600"><rect width="1000" height="600" x="0" y="0" fill="#df678c"/><g><rect width="333.3333333333333" height="333.3333333333333" y="235.82346411139537" fill="#3d155f" transform="matrix(0.5852026392599343,0,0,0.5852026392599343,0,64.46172556046588)" x="213.6011810302734"/><path d="M319.0775209800175 435.68804330240056L319.0775209800175 435.68804330240056Q313.1523300666183 432.3182664796143 310.0072050320178 426.19650525155254Q306.8339985238941 420.07474402349084 306.440857894569 414.54269373941673L306.440857894569 414.54269373941673Q307.0305688385566 409.825006187516 308.91202756461223 407.1572662028102Q310.7934862906679 404.4895262181044 313.3489003812808 402.8046378067113Q315.93239594541694 401.11974939531814 318.6843803506924 400.24922371609836Q321.4644462294911 399.35061656335535 324.019860320104 398.76090561936775L324.019860320104 398.76090561936775L326.9964965135652 399.74375719268045Q327.97934808687785 400.7266087659931 329.0464440807602 401.51289002464324Q330.1416215481657 402.29917128329333 331.12447312147833 403.0854525419435L331.12447312147833 403.0854525419435Q333.1182577416269 402.29917128329333 333.5956427915216 400.7266087659931Q334.10110931493955 399.15404624869285 334.69082025892715 397.58148373139255L334.69082025892715 397.58148373139255Q335.28053120291474 395.39112879658154 336.0668124615649 393.22885533529364Q336.853093720215 391.0665818740058 338.0325156081902 388.87622693919474L338.0325156081902 388.87622693919474Q337.83594529352763 387.10709410723194 338.2290859228527 385.7311019045942Q338.6222265521778 384.3551097019565 339.04344865502605 383.34417665512063L339.04344865502605 383.34417665512063Q337.83594529352763 382.361325081808 337.3585602436329 382.2770806612383Q336.853093720215 382.16475476714544 335.6736718322398 381.7716141378204L335.6736718322398 381.7716141378204Q335.0839608882522 381.7716141378204 334.4942499442646 381.6873697172507Q333.904539000277 381.57504382315784 333.1182577416269 381.3784735084953L333.1182577416269 381.3784735084953Q330.1416215481657 379.21620004720745 329.2430143954227 377.72788195047684Q328.3724887162029 376.2395638537463 327.38963714289025 374.667001336446L327.38963714289025 374.667001336446Q326.4067855695776 373.09443881914575 325.59242283740423 371.91501693117056Q324.8061415787541 370.7075135696722 323.82329000544144 369.7246619963595L323.82329000544144 369.7246619963595L321.4644462294911 368.15209947905925L322.64386811746624 365.79325570310885Q323.0370087467913 365.4001150737838 323.0370087467913 364.69807823570335Q323.0370087467913 363.99604139762283 322.2507274881412 362.62004919498514L322.2507274881412 362.62004919498514Q321.6610165441536 360.0646351043722 322.0541571734787 358.8571317428738L322.0541571734787 358.8571317428738L322.4472978028037 356.49828796692344Q324.41300094942903 353.9428738763105 324.6095712640916 353.54973324698545L324.6095712640916 353.54973324698545L326.6033558842401 351.55594862683694Q331.12447312147833 350.37652673886174 335.87024214690234 348.88820864213113Q340.6160111723263 347.42797201892375 345.16520988308775 345.8273280281002L345.16520988308775 345.8273280281002Q349.686327120326 344.25476551080004 354.43209614575 342.68220299349974Q359.177865171174 341.1096404761995 363.89555272307473 339.9021371147011L363.89555272307473 339.9021371147011Q365.4961967138982 338.5261449120634 367.37765543995386 338.2453301768312Q369.2310326924863 337.9364339680758 370.8316766833098 337.73986365341324L370.8316766833098 337.73986365341324Q372.2076688859475 337.73986365341324 373.3870907739227 337.54329333875074Q374.5665126618979 337.3467230240882 375.1562236058855 336.56044176543804L375.1562236058855 336.56044176543804Q378.52600042867175 335.38101987746285 381.67112546327223 334.59473861881276L381.67112546327223 334.59473861881276Q387.59631637667144 332.9940946279892 397.2844247421819 330.83182116670145Q406.94445163416924 328.66954770541355 418.9914037756301 327.6866961321009L418.9914037756301 327.6866961321009L423.1474618570665 327.49012581743835Q424.3268837450417 327.6866961321009 425.5063056330169 327.57437023800804Q426.68572752099203 327.49012581743835 427.89323088249046 327.49012581743835L427.89323088249046 327.49012581743835Q438.14296871846534 327.49012581743835 441.5127455412516 333.8084573601626L441.5127455412516 333.8084573601626Q443.4784486878769 334.79130893347525 445.0510112051772 336.25154555668263Q446.65165519600066 337.73986365341324 448.0276473986384 339.115855856051L448.0276473986384 339.115855856051Q449.010498971951 340.12678890288686 449.79678023060114 340.8007442674441Q450.5830614892513 341.50278110552455 451.1727724332389 341.89592173484965L451.1727724332389 341.89592173484965L452.77341642406236 343.4684842521499Q454.9356898853502 348.21425327757385 453.55969768271245 352.76345198833536L453.55969768271245 352.76345198833536Q452.3521943212141 355.1222957642857 450.97620211857634 355.51543639361074Q449.6002099159386 355.90857702293584 448.2242177133009 356.3017176522609L448.2242177133009 356.3017176522609L445.6407221491648 357.67770985489864Q443.08530805855185 357.4811395402361 441.7935602764838 357.4811395402361Q440.52989396793896 357.4811395402361 438.9292499771155 357.4811395402361L438.9292499771155 357.4811395402361Q433.0040590637163 357.4811395402361 425.2254908977847 358.18317637831655Q417.41884125832985 358.8571317428738 409.3313768836428 360.1488795249419Q401.2158310354326 361.44062730700995 393.5215072900706 363.3220860330656Q385.82718354470865 365.175463285598 380.098562945972 367.3658182204091L380.098562945972 367.3658182204091Q378.52600042867175 368.5452401083843 375.94250486453564 369.528091681697L375.94250486453564 369.528091681697Q375.352793920548 369.7246619963595 374.17337203257284 370.51094325500964L374.17337203257284 370.51094325500964Q374.3699423472354 372.1115872458331 374.17337203257284 373.5718238690405Q373.9768017179103 375.0601419657711 373.58366108858525 376.4361341684088L373.58366108858525 376.4361341684088Q373.3870907739227 377.41898574172143 373.27476487982983 378.514163209127Q373.1905204592602 379.6093406765325 372.99395014459765 380.7887625645077L372.99395014459765 380.7887625645077Q368.83789206316123 385.7311019045942 369.0344623778238 392.44257407664355L369.0344623778238 392.44257407664355L368.05161080451114 394.40827722326884Q367.265329545861 395.194558481919 366.7598630224431 396.68287657864954Q366.28247797254835 398.17119467538015 366.6756186018734 399.74375719268045L366.6756186018734 399.74375719268045L367.4618998605235 402.10260096863084Q371.4213876272974 401.70946033930574 375.26854949997835 401.23207528941106Q379.11571137265935 400.7266087659931 383.46833976875826 400.1368978220055L383.46833976875826 400.1368978220055Q388.9723085793092 399.15404624869285 394.6166847574761 398.45200941061233Q400.2329794621199 397.7780540460551 406.35474069018164 397.7780540460551L406.35474069018164 397.7780540460551L414.0490644355436 397.7780540460551L412.2799316035808 399.5471868780179L414.44220506486863 399.74375719268045L413.2627831768935 402.88888222728093Q414.6668568530544 403.50667464479176 415.34081221761164 403.78748938002394Q416.0428490556921 404.09638558877936 416.6325599996797 404.4895262181044L416.6325599996797 404.4895262181044L418.00855220231745 406.45522936472975Q418.9914037756301 407.04494030871734 419.77768503428024 408.3366880907854Q420.56396629293033 409.62843587285346 420.7605366075929 411.7907093341413L420.7605366075929 411.7907093341413L420.1708256636053 413.75641248076664L410.90393940094305 425.606794307565L409.7245175129679 427.17935682486524L407.73073289281933 426.58964588087764Q403.9958969142312 426.3930755662151 400.626120091445 427.37592713952773L400.626120091445 427.37592713952773Q399.0535575741447 427.76906776885284 397.2844247421819 428.2745342922708Q395.48721043669593 428.78000081568865 393.71807760473314 428.78000081568865L393.71807760473314 428.78000081568865Q388.9723085793092 429.56628207433886 385.82718354470865 430.04366712423354Q382.65397703658493 430.5491336476515 379.5088520019844 430.94227427697655L379.5088520019844 430.94227427697655Q375.1562236058855 431.7285555356267 371.112491418542 432.43059237370716Q367.06875923119844 433.1045477382644 363.5024120937497 434.48053994090213L363.5024120937497 434.48053994090213Q361.3401386324618 434.6771102555646 360.94699800313674 434.59286583499505Q360.5538573738117 434.48053994090213 360.1607167444866 434.48053994090213L360.1607167444866 434.48053994090213Q358.1950135978613 434.48053994090213 356.2012289777128 435.0983323584129Q354.23552583108744 435.68804330240056 352.46639299912465 436.27775424638816L352.46639299912465 436.27775424638816Q351.2588896376263 437.2606058197008 350.8657490083012 438.3557832871063Q350.47260837897613 439.42287928098864 350.0794677496511 440.60230116896383L350.0794677496511 440.60230116896383Q349.686327120326 442.0063748451248 349.01237175576875 443.27004115366964Q348.3103349176883 444.5617889357377 347.3274833443756 445.93778113837544L347.3274833443756 445.93778113837544L347.52405365903815 449.5041282758242Q345.75492082707535 449.89726890514925 345.75492082707535 449.98151332571894Q345.75492082707535 450.0938392198118 345.5583505124128 450.0938392198118L345.5583505124128 450.0938392198118Q345.5583505124128 451.66640173711204 345.0528839889949 453.04239393974973Q344.547417465577 454.4464676159107 344.1542768362519 455.6258895038859L344.1542768362519 455.6258895038859Q343.76113620692684 456.41217076253605 343.5645658922643 457.00188170652365Q343.3679955776018 457.59159265051125 343.3679955776018 458.18130359449884L343.3679955776018 458.18130359449884Q345.3617801977503 461.7476507319476 344.35084715091443 466.26876796918583L344.35084715091443 466.26876796918583Q343.5645658922643 470.03168542129714 341.40229243097644 472.89599572066544Q339.2400189696886 475.76030602003385 336.2633827762274 477.33286853733404L336.2633827762274 477.33286853733404Q333.1182577416269 477.72600916665914 331.6299396448963 477.13629822267154Q330.1416215481657 476.54658727868394 328.56905903086545 475.95687633469635L328.56905903086545 475.95687633469635Q327.5862074575528 475.56373570537124 326.6033558842401 475.2548394966159Q325.59242283740423 474.97402476138365 324.6095712640916 474.77745444672115L324.6095712640916 474.77745444672115L322.2507274881412 472.81175130009586Q321.6610165441536 471.60424793859744 320.8747352855035 470.5371519447151Q320.08845402685336 469.44197447730954 319.27409129468 468.26255258933435L319.27409129468 468.26255258933435Q318.29123972136733 466.88656038669666 317.3083881480547 465.48248671053574Q316.325536574742 464.106494507898 315.5392553160919 462.3373616759352L315.5392553160919 462.3373616759352Q314.16326311345415 455.42931918922335 315.033788792674 450.79587605789226Q315.93239594541694 446.13435145303794 317.5049584627172 441.6132342157997L317.5049584627172 441.6132342157997Q317.8980990920423 440.01259022497624 318.29123972136733 438.63659802233855Q318.6843803506924 437.2606058197008 319.0775209800175 435.68804330240056Z " fill="#df678c" transform="matrix(0.5852026392599343,0,0,0.5852026392599343,0,64.46172556046588)"/><path d="M632.0152497227065 419.3540246617233L632.0152497227065 419.3540246617233Q632.2094065208663 418.5773974690837 632.9028236571518 418.68834421088934Q633.5962407934372 418.7715542672436 634.178711187917 418.5773974690837L634.178711187917 418.5773974690837Q632.6254568026376 417.02414308380435 632.2094065208663 414.38915796591976Q631.8210929245465 411.7541728480352 630.2678385392672 410.0067616645959L630.2678385392672 410.0067616645959Q630.656152135587 409.03597767379637 630.9612556755526 408.03745699754535Q631.2386225300668 407.06667300674576 632.6254568026376 407.26082980490565L632.6254568026376 407.26082980490565Q632.0152497227065 402.9893802453875 632.8196136007975 399.2726643948977Q633.5962407934372 395.55594854440784 635.2327052350707 392.2552829756893Q636.8969063621558 388.92688072151924 639.1435778837205 385.709425209155Q641.3902494052853 382.4919696967906 643.5259741850443 379.19130412807203L643.5259741850443 379.19130412807203Q645.301122053935 378.8029905317522 645.6894356502548 379.4686709825862Q646.0777492465746 380.1620881188716 647.0485332373743 379.19130412807203L647.0485332373743 379.19130412807203Q650.1550420079329 377.02784266286153 651.3477194823439 374.39285754497695Q652.5126602713034 371.7856091125438 652.5126602713034 368.6513636565337L652.5126602713034 368.6513636565337Q654.2600714547426 363.5755502189245 656.5067429763074 358.6106835231209Q658.7534144978721 353.6458168273173 661.6657664702708 349.3466305823477Q664.605855128121 345.0474443373782 667.9065206968396 341.8299888250138Q671.2349229510096 338.6125333126495 675.1180589142078 336.8651221292102L675.1180589142078 336.8651221292102Q677.8639907738981 334.5352405512912 682.052230277062 332.5659358842407Q686.2404697802259 330.6243679026415 691.0111796778697 329.54263717003624Q695.8096262609647 328.48864312288237 700.8577030131225 328.37769638107676Q705.9335164507318 328.2944863247225 710.2327026957014 329.459427113682L710.2327026957014 329.459427113682Q711.2034866865009 329.8477407100018 711.3976434846609 328.9601667755565Q711.5918002828208 328.1003295265626 712.3684274754604 328.1003295265626L712.3684274754604 328.1003295265626Q722.1317407543592 329.26527031552206 729.8425393098529 331.98346548976093Q737.5256011798954 334.7293973494512 742.9897282138245 339.58331730344906L742.9897282138245 339.58331730344906Q746.7064440643143 345.43575793369797 750.0071096330329 352.17577249839223Q753.3355118872029 358.888050377635 755.1938698124478 366.210535336809Q757.0244910522413 373.533020295983 756.8303342540813 381.3270289078311Q756.6361774559215 389.1210375196792 753.5296686853627 396.94278281697865L753.5296686853627 396.94278281697865Q746.7064440643143 405.5134186214664 736.9431307854156 410.67244211542993Q727.2075541919684 415.8592022948448 715.9741965841446 419.2708146053691Q704.7685756617723 422.68242691589336 692.7863275467603 424.8181516956524Q680.7763427462969 426.9538764754115 669.4597750821189 429.5056515369418L669.4597750821189 429.5056515369418Q669.6539318802788 434.775621772711 669.4597750821189 440.71127245931416Q669.265618283959 446.67465983136873 668.2116242368052 452.61031051797187Q667.1298935041999 458.545961204575 665.0773787807951 464.2042450366641Q663.0248640573902 469.86252886875303 659.5300416905118 474.7441855082024L659.5300416905118 474.7441855082024Q655.6191690418619 474.55002871004245 651.430929538698 475.52081270084204Q647.2426900355341 476.49159669164163 643.9142877813641 477.49011736789265L643.9142877813641 477.49011736789265Q642.3610333960848 476.49159669164163 640.8909890671597 475.6317594426477Q639.448681423686 474.7441855082024 637.2852199584755 474.55002871004245L637.2852199584755 474.55002871004245Q637.8676903529554 472.22014713212343 636.2312259113218 469.6683720705931Q634.5670247842368 467.1443336945142 632.9028236571518 464.7035053747896Q631.2386225300668 462.2626770550649 630.7670988773926 459.8218487353402Q630.2678385392672 457.3810204156155 633.0137703989575 455.4394524340164L633.0137703989575 455.4394524340164Q631.4327793282267 454.08035484689697 631.4327793282267 451.1402661890468L631.4327793282267 451.1402661890468Q632.2094065208663 451.91689338168646 633.4020839952773 451.91689338168646L633.4020839952773 451.91689338168646Q633.0137703989575 448.42207101480795 634.2619212442712 443.54041437535864Q635.5378087750363 438.6587577359093 636.4253827094817 433.88804783826566Q637.2852199584755 429.117337940622 636.7027495639958 425.123255235618Q636.120279169516 421.1014358451626 632.0152497227065 419.3540246617233ZM682.7456474133475 373.727177094143L682.7456474133475 373.727177094143Q681.9412835352564 375.86290187390205 681.4697598825823 377.52710300098704Q680.9704995444569 379.19130412807203 680.3880291499771 380.55040171519147Q679.8055587554974 381.90949930231085 679.1121416192119 383.2685968894303Q678.4464611683778 384.6554311620011 677.6698339757382 386.4028423454404L677.6698339757382 386.4028423454404Q678.0581475720581 387.56778313439986 679.2230883610176 388.1502535288796Q680.3880291499771 388.73272392335934 680.7763427462969 389.8976647123189L680.7763427462969 389.8976647123189Q683.5222746059871 388.53856712519945 686.2404697802259 387.8728866743654Q688.9864016399162 387.17946953808 691.704596814155 386.79115594176017Q694.4227919883939 386.4028423454404 697.1687238480841 385.8203719509606Q699.886919022323 385.23790155648084 702.8270076801731 383.85106728391L702.8270076801731 383.85106728391Q705.7393596525718 382.4919696967906 708.9568151649362 381.63213244779666Q712.1742706773006 380.74455851335136 715.3085161333106 379.7737745225518Q718.4150249038693 378.8029905317522 721.3551135617195 377.52710300098704Q724.2674655341182 376.2512154702219 726.4309269993287 374.11549069046276L726.4309269993287 374.11549069046276Q723.6849951396384 371.5914523143839 718.2208681057094 369.6221476473333Q712.7567410717803 367.6805796657341 706.4327767888573 367.1813193276086Q700.0810758204829 366.7097956749345 693.7571115375599 368.06889326205396Q687.4054105691855 369.4279908491734 682.7456474133475 373.727177094143ZM792.3332916318947 460.7094226697855L792.3332916318947 460.7094226697855Q793.3040756226942 466.5618633000344 791.6398744956092 469.86252886875303Q790.0034100539757 473.190931122923 786.9801113397713 474.855132250008Q783.9568126255668 476.49159669164163 780.0459399769171 476.6857534898016Q776.1628040137188 476.8799102879614 772.6402449613888 476.2974398934817L772.6402449613888 476.2974398934817Q770.6986769797896 473.57924471924287 769.1176859090589 469.47421527243324Q767.5644315237796 465.39692251107493 766.2053339366602 460.9867895242997Q764.8462363495407 456.6043932229759 763.7645056169355 452.3052069780063Q762.6827748843302 448.03375741848816 761.9061476916905 444.7053551643181L761.9061476916905 444.7053551643181Q762.8769316824902 442.37547358639915 763.1820352224557 439.3521748721947Q763.4594020769699 436.3288761579903 763.5703488187756 433.1946307019802Q763.6812955605812 430.08812193142154 763.7645056169355 426.8706664190572Q763.8754523587412 423.6532109066929 764.263765955061 420.7131222488427L764.263765955061 420.7131222488427Q765.6228635421804 412.5308000406748 768.257848660065 405.1251050251466Q770.8928337779496 397.71941000961834 772.4460881632289 389.70350791415893L772.4460881632289 389.70350791415893Q772.8344017595488 387.9560967307197 772.1409846232633 386.4028423454404Q771.4753041724293 384.84958796016105 771.8636177687491 383.4627536875902L771.8636177687491 383.4627536875902Q772.0577745669091 382.68612649495054 773.0285585577086 382.40875964043636Q773.9993425485083 382.1036561004708 774.1934993466682 381.1328721096712L774.1934993466682 381.1328721096712Q774.775969741148 378.9971473299121 774.4986028866338 377.6103130573413Q774.1934993466682 376.2512154702219 775.1642833374677 374.3096474886227L775.1642833374677 374.3096474886227Q776.1628040137188 372.7563931033433 777.6051116571924 369.73309438913896Q779.0751559861175 366.7097956749345 778.6868423897977 363.38139342076454L778.6868423897977 363.38139342076454Q780.4342535732369 362.21645263180505 781.9875079585162 360.6631982465257Q783.5684990292469 359.1099438612464 785.2049634708806 357.83405633048125Q786.8691645979656 356.55816879971604 788.9216793213703 355.58738480891645Q790.9741940447752 354.61660081811686 793.886546017174 354.61660081811686L793.886546017174 354.61660081811686Q795.4675370879047 356.55816879971604 795.9390607405788 358.888050377635Q796.4383210787042 361.24566864100547 796.9098447313784 363.5755502189245Q797.4091050695039 365.9331684822949 798.3798890603035 367.9579465202483Q799.3506730511031 370.01046124365314 801.7082913144735 371.1754020326126L801.7082913144735 371.1754020326126Q801.7082913144735 372.7563931033433 801.7082913144735 375.08627468126235Q801.7082913144735 377.4161562591814 801.9024481126334 379.6628277807461Q802.0966049107933 381.90949930231085 802.7622853616273 383.7678572275558Q803.4557024979127 385.6262151528007 805.008956883192 386.2086855472804L805.008956883192 386.2086855472804Q801.5141345163136 395.55594854440784 798.4908358021091 404.73679142882673Q795.4675370879047 413.88989762779426 793.4982324208542 423.1539505685674Q791.556664439255 432.41800350934056 791.0574041011295 441.7930031919194Q790.5858804484554 451.1402661890468 792.3332916318947 460.7094226697855ZM953.2338039355626 439.24122813038906L953.2338039355626 439.24122813038906Q948.5463040942732 447.6454438221683 940.946452280585 452.221996921652Q933.3466004668968 456.7985500211358 924.165757582478 459.8218487353402Q915.0126513835104 462.84514744954464 904.9719712500977 465.20276571291504Q894.9312911166847 467.53264729083406 885.5562914341059 471.22162645587247L885.5562914341059 471.22162645587247Q882.8380962598671 471.22162645587247 880.7855815364622 471.4435199394838Q878.7330668130575 471.63767673764374 876.8747088878125 471.9150435921579Q875.0163509625677 472.22014713212343 873.2689397791285 472.4975139866376Q871.5215285956892 472.8026175266032 869.3580671304786 472.9967743247631L869.3580671304786 472.9967743247631Q868.581439937839 472.8026175266032 868.3872831396791 473.27414117927725Q868.1931263415191 473.77340151740276 867.8048127451993 474.1617151137226L867.8048127451993 474.1617151137226Q864.5041471764808 474.7441855082024 861.8691620585962 474.7441855082024Q859.2341769407116 474.7441855082024 857.4867657572723 474.7441855082024L857.4867657572723 474.7441855082024Q855.1291474939019 474.7441855082024 852.6883191741773 475.43760264448775Q850.2474908544526 476.1032830953218 848.3059228728534 475.9091262971619L848.3059228728534 475.9091262971619Q833.6886896399569 475.1324991045222 825.3954206899833 465.48013256742917Q817.1021517400097 455.82776603033625 816.1313677492102 438.6587577359093L816.1313677492102 438.6587577359093Q816.32552454737 437.68797374510973 815.8262642092445 437.49381694694983Q815.3547405565705 437.2996601487899 814.9664269602507 436.9113465524701L814.9664269602507 436.9113465524701Q814.9664269602507 434.9697785708709 815.4379506129247 433.58294429830005Q815.9372109510502 432.22384671118067 815.5488973547303 430.08812193142154L815.5488973547303 430.08812193142154Q820.6247107923397 419.3540246617233 827.0596218170683 410.0899717209502Q833.494532841797 400.825918780177 842.4534822426045 393.8085373609686L842.4534822426045 393.8085373609686Q843.812579829724 392.64359657200913 844.8111005059749 391.4786557830496Q845.7818844967745 390.3137149940901 846.6417217457685 389.1210375196792Q847.5292956802137 387.9560967307197 848.6942364691732 387.0962594817258Q849.8591772581327 386.2086855472804 851.6343251270234 385.8203719509606L851.6343251270234 385.8203719509606Q855.7116178883817 381.1328721096712 861.3699017204707 377.2219994610214Q867.0281855525596 373.3388634978231 873.2689397791285 369.73309438913896Q879.5096940056972 366.1273252804548 885.6672381759116 362.5215561717706Q891.7970456606747 358.888050377635 896.872859098284 354.42244401995697L896.872859098284 354.42244401995697Q899.008583878043 355.39322801075656 899.9793678688426 355.0049144144367Q900.9778885450936 354.61660081811686 902.1428293340531 355.0049144144367L902.1428293340531 355.0049144144367Q903.5019269211726 357.9172663868355 905.9427552408972 359.1099438612464Q908.3835835606219 360.2748846502059 910.8244118803466 361.52303549551965Q913.2375035146198 362.7989230262848 915.4009649798303 364.546334209724Q917.5366897595894 366.3214820786147 918.7016305485489 369.23383405101345L918.7016305485489 369.23383405101345Q917.5366897595894 369.23383405101345 917.647636501395 370.1214079854588Q917.7308465577493 370.9812452344527 918.1191601540692 371.868819168898Q918.5074737503891 372.7563931033433 918.4242636940347 373.61623035233725Q918.313316952229 374.5038042867826 916.9542193651097 374.5038042867826L916.9542193651097 374.5038042867826Q917.1483761632695 375.4745882775822 918.2301068958748 375.58553501938786Q919.2841009430286 375.66874507574215 919.2841009430286 376.6395290665417L919.2841009430286 376.6395290665417Q919.2841009430286 377.6103130573413 918.8125772903546 378.22052013727244Q918.313316952229 378.8029905317522 918.7016305485489 380.1620881188716L918.7016305485489 380.1620881188716Q914.8184945853505 382.68612649495054 910.0200480022555 385.04374475832094Q905.2493381046119 387.37362633623997 900.0903146106483 390.0086114541245Q894.9312911166847 392.64359657200913 889.35621734095 395.6668952862135Q883.8088802506667 398.69019400041793 878.5389100148976 402.57332996361623L878.5389100148976 402.57332996361623Q873.2689397791285 406.484202612266 867.8048127451993 411.2549125099097Q862.3406857112702 416.05335909300476 857.2926089591125 421.2955926433225Q852.2167955215032 426.56556287909166 847.7234524783737 432.14063665482644Q843.2301094352442 437.68797374510973 840.1236006646856 443.1521007790388L840.1236006646856 443.1521007790388Q840.5119142610054 444.1228847698384 840.9834379136795 444.6221451079639Q841.482698251805 445.09366876063797 841.8710118481248 446.06445275143756L841.8710118481248 446.06445275143756Q848.1117660746935 446.4805030332088 853.4649463668169 445.98124269508327Q858.8458633443918 445.4819823569578 864.3099903783208 446.67465983136873L864.3099903783208 446.67465983136873Q864.8924607728005 446.25860954959745 865.0866175709605 445.4819823569578Q865.2807743691204 444.7053551643181 866.0574015617601 444.3170415679983L866.0574015617601 444.3170415679983Q877.1798124277782 443.1521007790388 886.7212322230654 440.71127245931416Q896.2903887038043 438.2704441395895 906.2201220954114 435.55224896535066L906.2201220954114 435.55224896535066Q904.666867710132 434.9697785708709 903.3909801793669 434.4705182327454Q902.1428293340531 433.9989945800713 900.9778885450936 433.58294429830005L900.9778885450936 433.58294429830005Q899.9793678688426 432.61216030750046 901.061098601448 431.9464798566665Q902.1428293340531 431.2530627203811 902.9194565266928 430.4764355277414L902.9194565266928 430.4764355277414Q900.1735246670027 428.92318114246206 898.5370602253689 426.56556287909166Q896.872859098284 424.23568130117263 896.4845455019641 420.3248086525229L896.4845455019641 420.3248086525229Q897.6494862909236 419.3540246617233 897.6494862909236 417.99492707460394Q897.6494862909236 416.6358294874845 896.4845455019641 415.8592022948448L896.4845455019641 415.8592022948448Q895.7079183093246 415.6650454966849 895.5137615111645 415.8592022948448Q895.3196047130047 416.05335909300476 895.2086579711989 416.4416726893246Q895.1254479148447 416.82998628564445 894.9312911166847 417.1073531401586Q894.7371343185249 417.4124566801242 893.9327704404337 417.02414308380435L893.9327704404337 417.02414308380435Q894.1269272385937 415.27673190036506 894.8203443748791 414.08405442595415Q895.5137615111645 412.91911363699467 895.9020751074844 411.36585925171534L895.9020751074844 411.36585925171534L909.3543675514214 402.37917316545634Q911.4900923311806 403.9601642361871 914.6243377871907 405.818522161432Q917.7308465577493 407.6491434012255 921.1424588682736 409.5075013264704Q924.5540711787977 411.36585925171534 928.159840287482 413.2242171769603Q931.765609396166 415.05483841675374 934.8998548521762 416.82998628564445L934.8998548521762 416.82998628564445Q937.6180500264151 417.99492707460394 939.7815114916256 419.93649505620306Q941.9172362713846 421.90579972325366 943.8588042529838 423.9305777612071Q945.8281089200344 425.9830924846119 947.8806236434392 427.95239715166247Q949.9054016813926 429.89396513326164 952.6513335410829 431.2530627203811L952.6513335410829 431.2530627203811Q952.263019944763 433.77710109646 952.8454903392427 435.3580921671907Q953.4279607337226 436.9113465524701 953.2338039355626 439.24122813038906ZM1046.6509605359338 416.24751589116465L1046.6509605359338 416.24751589116465Q1049.5633125083327 416.6358294874845 1050.8392000390977 417.6066134782841Q1052.1150875698631 418.5773974690837 1052.5866112225372 420.0474417980087Q1053.0858715606623 421.5174861269338 1052.8917147625025 423.2648973103731Q1052.6975579643426 425.0123084938123 1052.6975579643426 426.7597196772516L1052.6975579643426 426.7597196772516Q1047.8159013248933 430.08812193142154 1039.2452655204056 431.36400946218674Q1030.6468930304663 432.61216030750046 1021.299630033339 433.11142064562597Q1011.9246303507601 433.58294429830005 1003.1598377481126 433.58294429830005Q994.3673084600135 433.58294429830005 989.3192317078557 434.1931513782312L989.3192317078557 434.1931513782312Q978.7792912363174 435.3580921671907 973.0377973478741 436.4120862143446Q967.2685667739794 437.49381694694983 965.1328419942204 438.46460093774937L965.1328419942204 438.46460093774937Q961.4161261437306 438.2704441395895 959.2804013639715 437.10550335063Q957.1446765842123 435.94056256167045 955.7578423116415 434.27636143458545Q954.3987447245221 432.61216030750046 953.4279607337226 430.4764355277414Q952.4571767429229 428.3407107479823 951.0980791558035 425.9830924846119L951.0980791558035 425.9830924846119Q951.8747063484433 424.4298380993326 951.4863927521234 421.5174861269338Q951.0980791558035 418.5773974690837 949.1287744887529 417.02414308380435L949.1287744887529 417.02414308380435Q950.6820288740322 416.82998628564445 951.4863927521234 414.77747156223955Q952.263019944763 412.72495683883477 951.4863927521234 411.7541728480352L951.4863927521234 411.7541728480352Q954.5929015226819 410.9775456553955 958.1986706313662 410.67244211542993Q961.8044397400503 410.39507526091575 965.3269987923803 410.20091846275585Q968.8218211592588 410.0067616645959 972.039276671623 409.5075013264704Q975.2567321839874 409.03597767379637 977.6143504473579 407.8433001993854L977.6143504473579 407.8433001993854Q987.349927040805 407.6491434012255 997.8066574559891 407.26082980490565Q1008.2356511857218 406.87251620858586 1017.3887573846893 406.484202612266L1017.3887573846893 406.484202612266Q1020.7171596388592 407.4549866030656 1025.1827659965375 407.56593334487127Q1029.6761090396667 407.6491434012255 1033.9752952846366 408.148403739351Q1038.274481529606 408.6199273920251 1041.7693038964844 410.39507526091575Q1045.2918629488145 412.14248644435503 1046.6509605359338 416.24751589116465ZM1084.483799491666 477.0740670861214L1084.483799491666 477.0740670861214Q1082.5422315100668 477.0740670861214 1078.4372020632572 476.49159669164163L1078.4372020632572 476.49159669164163Q1075.3029566072473 473.190931122923 1072.889864972974 467.42170054902834Q1070.4490366532495 461.68020666058516 1069.1731491224841 455.1343488940508Q1067.8972615917191 448.6162278129679 1068.0082083335246 442.07037004643354Q1068.091418389879 435.55224896535066 1070.2548798550893 430.4764355277414L1070.2548798550893 430.4764355277414Q1070.2548798550893 430.2822787295815 1072.085501094883 425.78893568645196Q1073.943859020128 421.2955926433225 1076.883947677978 414.38915796591976Q1079.7962996503766 407.4549866030656 1083.5130155008665 398.9675608549321Q1087.2019946659052 390.50787179225 1090.9187105163946 382.2978128986307Q1094.6354263668845 374.11549069046276 1098.047038677409 367.37547612576856Q1101.4586509879332 360.6631982465257 1103.982689364012 356.9464823960359L1103.982689364012 356.9464823960359Q1105.7301005474515 354.2282872217971 1107.2001448763763 351.6765121602667Q1108.6701892053015 349.1524737841878 1110.0292867924209 347.01674900442873L1110.0292867924209 347.01674900442873Q1112.16501157218 343.4941899520988 1114.023369497425 340.47089123789436Q1115.8817274226699 337.44759252369 1118.1283989442345 335.0067642039653Q1120.3750704657991 332.5659358842407 1123.0932656400382 330.7075779589957Q1125.8391974997285 328.8769567192022 1129.7223334629266 327.4901224466314L1129.7223334629266 327.4901224466314Q1132.0799517262972 328.48864312288237 1133.8273629097366 329.54263717003624Q1135.5747740931756 330.6243679026415 1136.933871680295 332.1776222879208L1136.933871680295 332.1776222879208L1137.516342074775 334.92355414761107Q1137.9046556710946 336.28265173473045 1138.79222960554 336.7541753874046Q1139.6798035399852 337.2534357255301 1140.2622739344652 337.2534357255301L1140.2622739344652 337.2534357255301Q1142.786312310544 337.83590612000984 1144.644670235789 338.52932325629524Q1146.5030281610339 339.1950037071293 1148.638752940793 339.38916050528917L1148.638752940793 339.38916050528917Q1149.4153801334328 340.5818379797001 1150.1087972697178 341.74677876865957Q1150.8022144060033 342.91171955761905 1151.578841598643 343.88250354841864L1151.578841598643 343.88250354841864Q1155.4619775618416 349.54078738050765 1158.0137526233716 354.8107576162768Q1160.5377909994509 360.080727852046 1158.0137526233716 366.3214820786147L1158.0137526233716 366.3214820786147L1158.2079094215314 368.4572068583738Q1159.178693412331 369.8163044454932 1159.178693412331 370.9812452344527Q1159.178693412331 372.1739227088636 1158.7903798160114 374.3096474886227L1158.7903798160114 374.3096474886227Q1158.5962230178516 375.86290187390205 1158.4852762760456 377.72125979914694Q1158.4020662196917 379.5796177243919 1158.9845366141712 381.71534250415095L1158.9845366141712 381.71534250415095L1160.3436342012906 383.2685968894303Q1163.477879657301 384.84958796016105 1166.3902316296994 384.84958796016105L1166.3902316296994 384.84958796016105Q1170.3011042783492 384.84958796016105 1173.407613048908 383.0744400912704Q1176.5418585049179 381.3270289078311 1179.260053679157 379.5796177243919L1179.260053679157 379.5796177243919Q1181.395778458916 378.02636333911255 1183.254136384161 377.02784266286153Q1185.112494309406 376.05705867206194 1186.859905492845 375.66874507574215L1186.859905492845 375.66874507574215Q1190.9649349396545 371.7856091125438 1194.376547250179 368.76231039833937Q1197.7881595607032 365.73901168413494 1201.504875411193 362.6047662281249L1201.504875411193 362.6047662281249Q1208.5222568304016 356.9464823960359 1215.15132465329 350.42836131495295Q1221.7803924761783 343.88250354841864 1225.6912651248285 334.14692695497143L1225.6912651248285 334.14692695497143Q1227.8269899045872 332.76009268240057 1230.5451850788263 332.76009268240057L1230.5451850788263 332.76009268240057Q1233.2911169385166 332.76009268240057 1236.0093121127552 333.8418234150058Q1238.7552439724454 334.92355414761107 1241.473439146684 336.28265173473045L1241.473439146684 336.28265173473045Q1242.055909541164 336.6709653310503 1242.5551698792897 336.8651221292102Q1243.0266935319637 337.05927892737014 1243.6091639264432 337.44759252369L1243.6091639264432 337.44759252369Q1243.6091639264432 339.58331730344906 1245.3843117953343 341.3584651723397L1245.3843117953343 341.3584651723397Q1246.3550957861335 342.13509236497936 1246.7434093824536 342.3292491631393Q1247.1317229787733 342.5234059612992 1247.520036575093 342.71756275945916L1247.520036575093 342.71756275945916Q1249.0732909603726 343.68834675025875 1250.1550216929777 344.4649739428984Q1251.2367524255828 345.2416011355381 1251.8192228200628 346.6284354081089L1251.8192228200628 346.6284354081089Q1253.5666340035018 351.8706689584266 1257.6716634503114 354.8107576162768L1257.6716634503114 354.8107576162768Q1257.2833498539917 356.9464823960359 1257.8658202484717 358.99899711944073Q1258.4482906429512 361.0515118428455 1259.224917835591 362.9930798244447L1259.224917835591 362.9930798244447Q1259.6132314319107 363.7697070170844 1259.807388230071 364.4631241533698Q1260.0015450282308 365.12880460420376 1260.3898586245505 366.1273252804548L1260.3898586245505 366.1273252804548L1256.090672379581 365.73901168413494L1256.7008794595122 370.01046124365314Q1257.2833498539917 373.3388634978231 1256.2016191213866 377.4161562591814Q1255.1198883887814 381.52118570599106 1253.7607908016616 383.85106728391L1253.7607908016616 383.85106728391Q1254.1491043979818 389.70350791415893 1254.1491043979818 393.11512022468315Q1254.1491043979818 396.55446922065886 1253.7607908016616 399.46682119305757Q1253.372477205342 402.37917316545634 1252.4849032708967 405.0141582833409Q1251.625066021903 407.6491434012255 1250.238231749332 410.58923205907564L1250.238231749332 410.58923205907564Q1251.042595627423 425.4006220901322 1246.8266194388075 437.68797374510973Q1242.638379935644 449.9753254000873 1237.7567232961947 460.7094226697855L1237.7567232961947 460.7094226697855Q1237.1742529017147 462.06852025690495 1236.5917825072352 463.23346104586443Q1236.0093121127552 464.3984018348239 1235.6209985164355 465.5910793092349L1235.6209985164355 465.5910793092349Q1233.4852737366764 466.1735497037146 1231.7378625532374 466.9501768963543Q1229.9627146843468 467.72680408899396 1228.4094602990672 468.69758807979355L1228.4094602990672 468.69758807979355Q1226.273735519308 470.056685666913 1224.1102740540978 470.9442596013583Q1221.9745492743386 471.83183353580364 1219.6446676964197 471.83183353580364L1219.6446676964197 471.83183353580364Q1210.2696680138406 464.9808722293037 1209.9923011593264 448.22791421664806Q1209.687197619361 431.447219518541 1217.0928926348893 405.5134186214664L1217.0928926348893 405.5134186214664Q1218.4519902220086 404.54263463066684 1218.2578334238488 402.57332996361623L1218.2578334238488 402.57332996361623L1218.2578334238488 400.43760518385716L1216.3162654422495 400.24344838569726Q1215.3454814514498 400.24344838569726 1214.5688542588105 400.43760518385716Q1213.7922270661707 400.6317619820171 1213.403913469851 402.18501636729644L1213.403913469851 402.18501636729644Q1207.1631592432818 406.6783594104259 1199.840674284108 411.44906930806957Q1192.5181893249342 416.24751589116465 1184.7241807130858 420.24159859616867Q1176.930172101238 424.23568130117263 1168.8310599494243 426.8706664190572Q1160.7319477976107 429.5056515369418 1153.1320959839222 429.5056515369418L1153.1320959839222 429.5056515369418Q1133.6332061115763 429.5056515369418 1123.6757360345177 409.6184480682761L1123.6757360345177 409.6184480682761L1121.9283248510787 406.09588901594617L1119.9867568694794 409.23013447195626Q1119.404286475 410.20091846275585 1117.9342421460747 413.03006037880033Q1116.4641978171494 415.8592022948448 1114.9941534882246 419.5481814598832Q1113.551845844751 423.2648973103731 1112.4701151121458 427.14803327357146Q1111.3883843795402 431.0589059222212 1111.7766979758603 433.9989945800713L1111.7766979758603 433.9989945800713Q1109.4468163979413 436.1347193598304 1107.2001448763763 438.8529145340692Q1104.9534733548116 441.59884639375946 1103.982689364012 445.09366876063797L1103.982689364012 445.09366876063797Q1103.5943757676923 446.06445275143756 1103.7885325658522 446.9520266858829Q1103.982689364012 447.8396006203282 1104.3710029603321 448.8103846111278L1104.3710029603321 448.8103846111278Q1104.1768461621718 450.16948219824724 1103.5943757676923 450.751952592727Q1103.0119053732124 451.3344229872067 1102.235278180573 451.91689338168646L1102.235278180573 451.91689338168646Q1101.2644941897734 452.9154140579374 1100.265973513522 453.9694081050913Q1099.2951895227225 455.05113883769656 1098.5185623300831 456.410236424816L1098.5185623300831 456.410236424816Q1098.130248733763 457.5751772137755 1097.9360919356031 458.8510647445406Q1097.7419351374433 460.12695227530577 1097.5477783392835 461.0977362661054L1097.5477783392835 461.0977362661054Q1097.5477783392835 463.23346104586443 1096.9653079448035 464.0100882385041L1096.9653079448035 464.0100882385041Q1095.0237399632047 468.1151176853138 1093.5536956342794 470.75010280319833Q1092.0836513053541 473.38508792108297 1090.7245537182348 474.7441855082024Q1089.3654561311155 476.1032830953218 1087.8954118021907 476.6025434334473Q1086.4253674732654 477.0740670861214 1084.483799491666 477.0740670861214ZM1364.9294260909396 457.18686361745563L1364.54111249462 457.9634908100953Q1363.3761717056605 461.29189306426525 1361.1295001840958 464.7035053747896Q1358.8828286625312 468.1151176853138 1355.8595299483268 470.75010280319833Q1352.8362312341224 473.38508792108297 1349.1195153836325 475.1324991045222Q1345.4305362185937 476.8799102879614 1341.3255067717841 477.0740670861214L1341.3255067717841 477.0740670861214Q1338.8014683957053 476.49159669164163 1337.91389446126 475.82591624080766Q1337.0263205268147 475.1324991045222 1336.055536536015 474.55002871004245L1336.055536536015 474.55002871004245Q1335.4730661415351 474.1617151137226 1335.001542488861 473.856611573757Q1334.502282150736 473.57924471924287 1334.1139685544158 473.38508792108297L1334.1139685544158 473.38508792108297L1331.7840869764968 472.4143039302834L1332.5607141691366 469.86252886875303Q1332.9490277654563 468.3092744834737 1332.3665573709768 467.42170054902834Q1331.7840869764968 466.5618633000344 1330.0089391076062 464.9808722293037L1330.0089391076062 464.9808722293037Q1329.4264687131263 464.3984018348239 1328.8439983186468 463.8159314403442Q1328.2615279241668 463.23346104586443 1327.873214327847 462.6509906513847L1327.873214327847 462.6509906513847L1324.5448120736773 458.9620114863463L1329.8147823094464 457.5751772137755Q1334.6964389488958 456.21607962665604 1336.3606400759809 454.08035484689697Q1338.0248412030655 451.91689338168646 1337.6087909212943 446.8688166295287L1337.6087909212943 446.8688166295287Q1333.7256549580961 446.06445275143756 1331.0906698402114 446.67465983136873Q1328.455684722327 447.25713022584847 1325.737489548088 448.03375741848816L1325.737489548088 448.03375741848816Q1322.214930495758 449.0045414092877 1318.609161387074 449.69795854557316Q1315.00339227839 450.36363899640713 1310.7042060334202 450.36363899640713L1310.7042060334202 450.36363899640713Q1309.150951648141 450.36363899640713 1307.7918540610217 450.2804289400529Q1306.4050197884508 450.16948219824724 1304.8517654031716 449.9753254000873L1304.8517654031716 449.9753254000873L1302.9101974215723 449.58701180376744Q1302.5218838252522 447.4512870240084 1302.1335702289325 447.1461834840428Q1301.7452566326128 446.8688166295287 1301.3569430362927 446.4805030332088L1301.3569430362927 446.4805030332088Q1300.386159045493 445.4819823569578 1299.304428312888 443.84551791532425Q1298.2226975802828 442.18131678823926 1298.8051679747628 439.6295417267089L1298.8051679747628 439.6295417267089Q1297.834383983963 437.8821305432696 1297.6402271858028 436.1347193598304L1297.6402271858028 436.1347193598304Q1296.4752863968433 438.46460093774937 1295.8928160023638 441.0163759992798L1295.8928160023638 441.0163759992798L1295.116188809724 442.9579439808789L1293.1468841426736 443.34625757719874Q1292.7585705463534 443.54041437535864 1292.5644137481936 444.23383151164404Q1292.3702569500338 444.8995119624781 1292.3702569500338 445.28782555879786L1292.3702569500338 445.28782555879786L1291.3994729592341 448.6162278129679Q1291.0111593629144 449.0045414092877 1290.6228457665948 449.2819082638019Q1290.2345321702746 449.58701180376744 1289.846218573955 449.9753254000873L1289.846218573955 449.9753254000873Q1289.4579049776353 451.72273658352657 1288.8754345831553 453.4978844524172Q1288.2929641886758 455.24529563585645 1287.6827571087447 456.7985500211358L1287.6827571087447 456.7985500211358Q1286.7119731179446 459.3503250826662 1286.0462926671107 461.7634167169394Q1285.3528755308257 464.2042450366641 1285.5470323289856 466.5618633000344L1285.5470323289856 466.5618633000344L1284.7704051363457 468.69758807979355Q1283.799621145546 469.86252886875303 1282.6346803565866 470.5559460050385Q1281.4420028821755 471.22162645587247 1280.277062093216 471.83183353580364L1280.277062093216 471.83183353580364Q1279.8887484968964 472.22014713212343 1279.2230680460625 472.4975139866376Q1278.529650909777 472.8026175266032 1278.1413373134574 472.9967743247631L1278.1413373134574 472.9967743247631L1277.5588669189774 475.1324991045222L1275.2012486556068 475.52081270084204Q1273.0655238758477 475.9091262971619 1272.1779499414024 476.1032830953218Q1271.3181126924087 476.2974398934817 1270.1531719034492 476.2974398934817L1270.1531719034492 476.2974398934817L1268.1838672363988 476.1032830953218Q1266.0481424566397 474.3558719118825 1264.8832016676802 473.27414117927725Q1263.7182608787202 472.22014713212343 1262.13726980799 471.22162645587247L1262.13726980799 471.22162645587247Q1260.3898586245505 468.89174487795344 1260.1957018263906 467.72680408899396Q1260.0015450282308 466.5618633000344 1259.807388230071 465.5910793092349L1259.807388230071 465.5910793092349Q1259.4190746337508 464.3984018348239 1259.3081278919453 463.62177464218433Q1259.224917835591 462.84514744954464 1258.8366042392713 462.4568338532248L1258.8366042392713 462.4568338532248L1256.284829177741 460.12695227530577L1258.4482906429512 458.35180440641517L1258.6424474411115 455.05113883769656Q1262.5255834043096 445.09366876063797 1266.935716391085 435.94056256167045Q1271.3181126924087 426.7597196772516 1276.0056125336982 417.21829988196424L1276.0056125336982 417.21829988196424Q1277.5588669189774 414.08405442595415 1279.0289112479027 410.9775456553955Q1280.4712188913763 407.8433001993854 1282.0522099621066 404.73679142882673L1282.0522099621066 404.73679142882673Q1281.8580531639468 404.154321034347 1281.8580531639468 403.37769384170736Q1281.8580531639468 402.57332996361623 1282.246366760267 401.6025459728167L1282.246366760267 401.6025459728167Q1284.382091540026 398.3018804040981 1285.7411891271454 395.6668952862135Q1287.1002867142647 393.0319101683289 1288.4871209868356 390.3137149940901L1288.4871209868356 390.3137149940901Q1290.0403753721148 386.9853127399201 1291.7045764992 383.85106728391Q1293.3410409408334 380.74455851335136 1295.8928160023638 377.4161562591814L1295.8928160023638 377.4161562591814L1298.9993247729226 376.05705867206194Q1299.581795167402 375.86290187390205 1300.386159045493 375.58553501938786Q1301.1627862381329 375.2804314794223 1302.1335702289325 375.2804314794223L1302.1335702289325 375.2804314794223L1305.0459222013315 375.66874507574215Q1310.5100492352603 373.1447066996632 1314.61507868207 368.56815360017947Q1318.6923714434283 363.9638638152443 1322.9915576883977 357.52895279051563L1322.9915576883977 357.52895279051563L1324.933125669997 354.8107576162768L1327.4849007315274 356.36401200155615Q1328.455684722327 356.9464823960359 1330.203095905766 357.4457427341614Q1331.9782437746567 357.9172663868355 1333.919811756256 358.4997367813152L1333.919811756256 358.4997367813152Q1337.4146341231344 359.3041006594063 1340.5488795791448 360.2748846502059Q1343.6553883497031 361.24566864100547 1345.624693016754 363.18723662260464L1345.624693016754 363.18723662260464Q1346.7896338057135 366.3214820786147 1346.9837906038733 367.87473646389407Q1347.1779474020332 369.4279908491734 1347.5662609983528 370.9812452344527L1347.5662609983528 370.9812452344527Q1348.1487313928328 374.3096474886227 1348.647991730958 377.6103130573413Q1349.1195153836325 380.93871531151126 1349.3136721817923 385.04374475832094L1349.3136721817923 385.04374475832094Q1350.312192858043 388.3444103270395 1350.9778733088774 391.5618658394039Q1351.6712904451624 394.7793213517682 1352.2537608396424 398.1077236059382L1352.2537608396424 398.1077236059382Q1353.224544830442 402.7952234472276 1354.1953288212417 407.1776197485514Q1355.1661128120413 411.5600160498753 1356.747103882772 415.470888698525L1356.747103882772 415.470888698525Q1358.3003582680512 415.470888698525 1358.688671864371 415.6650454966849L1358.688671864371 415.6650454966849Q1359.6594558551706 415.27673190036506 1360.7411865877757 415.05483841675374Q1361.7951806349297 414.86068161859384 1363.1820149075006 414.66652482043395L1363.1820149075006 414.66652482043395L1365.3177396872597 414.472368022274L1366.094366879899 416.4416726893246Q1366.2885236780594 417.4124566801242 1368.0359348614984 418.3832406709237L1368.0359348614984 418.3832406709237Q1370.5877099230288 418.5773974690837 1371.7526507119883 419.464971403529Q1372.9175915009478 420.3248086525229 1373.8883754917474 421.2955926433225L1373.8883754917474 421.2955926433225Q1374.6650026843872 422.09995652141356 1375.4693665624782 422.4882701177334L1375.4693665624782 422.4882701177334L1378.3817185348767 423.6532109066929L1376.8284641495975 426.56556287909166Q1374.859159482547 430.08812193142154 1371.2533903738627 433.3055774437859Q1367.6476212651787 436.52303295615025 1363.1820149075006 438.6587577359093L1363.1820149075006 438.6587577359093Q1363.3761717056605 439.8236985248688 1363.4593817620148 440.90542925747405Q1363.5703285038203 441.9871599900793 1363.9586421001404 443.1521007790388L1363.9586421001404 443.1521007790388Q1364.54111249462 446.4805030332088 1364.9294260909396 449.9753254000873Q1365.3177396872597 453.4978844524172 1364.9294260909396 457.18686361745563L1364.9294260909396 457.18686361745563ZM1308.1801676573414 424.23568130117263L1308.1801676573414 424.23568130117263Q1314.0326082875904 423.84736770485284 1318.8033181852338 423.34810736672733Q1323.5740280828777 422.87658371405325 1329.4264687131263 421.7116429250937L1329.4264687131263 421.7116429250937Q1328.067371126007 415.8592022948448 1326.5141167407278 409.5075013264704Q1324.933125669997 403.18353704354746 1323.1857144865576 396.94278281697865L1323.1857144865576 396.94278281697865L1322.020773697598 398.8843507985778Q1318.1099010489484 402.9893802453875 1314.5041319402644 408.03745699754535Q1310.89836283158 413.11327043515456 1308.3743244555012 417.6066134782841L1308.3743244555012 417.6066134782841Q1307.2093836665417 419.3540246617233 1306.0167061921306 421.1014358451626Q1304.8517654031716 422.87658371405325 1303.8809814123715 424.6239948974925L1303.8809814123715 424.6239948974925Q1305.0459222013315 424.4298380993326 1306.1276529339366 424.4298380993326Q1307.2093836665417 424.4298380993326 1308.1801676573414 424.23568130117263ZM1417.3794982795685 438.8529145340692L1417.3794982795685 438.8529145340692Q1415.6320870961295 439.24122813038906 1414.8554599034896 440.90542925747405Q1414.0788327108503 442.56963038455905 1413.3854155745648 444.3170415679983Q1412.7197351237305 446.06445275143756 1412.026317987445 447.53449708036266Q1411.3329008511596 449.0045414092877 1409.9738032640403 449.0045414092877L1409.9738032640403 449.0045414092877Q1409.7796464658804 450.5577957945671 1408.8920725314351 451.72273658352657Q1408.0322352824414 452.9154140579374 1407.2556080898016 454.1635649032512Q1406.4789808971618 455.4394524340164 1406.0629306153905 456.9094967629415Q1405.6746170190709 458.35180440641517 1406.4789808971618 460.3211090734657L1406.4789808971618 460.3211090734657Q1404.897989826431 461.4860498624252 1404.5096762301114 463.62177464218433Q1404.1213626337913 465.7852361073948 1403.6498389811177 467.72680408899396Q1403.150578642992 469.6683720705931 1401.9856378540326 471.0274696577125Q1400.820697065073 472.4143039302834 1397.6864516090627 472.22014713212343L1397.6864516090627 472.22014713212343Q1397.1039812145832 472.9967743247631 1397.4922948109029 473.190931122923Q1397.8806084072226 473.38508792108297 1398.0747652053828 474.55002871004245L1398.0747652053828 474.55002871004245Q1395.9390404256237 474.1617151137226 1394.8573096930186 474.855132250008Q1393.775578960413 475.52081270084204 1392.2223245751338 475.71496949900194L1392.2223245751338 475.71496949900194Q1388.5333454100955 474.55002871004245 1386.0925170903706 471.63767673764374Q1383.6516887706462 468.69758807979355 1381.7933308454012 465.0918189711094Q1379.9349729201563 461.4860498624252 1378.4926652766826 457.76933401193537Q1377.0226209477573 454.08035484689697 1375.663523360638 451.3344229872067L1375.663523360638 451.3344229872067Q1376.245993755118 449.19869820744765 1375.8576801587978 447.1461834840428Q1375.4693665624782 445.09366876063797 1374.470845886227 443.73457117351853L1374.470845886227 443.73457117351853Q1384.0400023669658 423.459054108533 1395.3565700311437 400.43760518385716Q1406.6731376953217 377.4161562591814 1416.797027885089 355.0049144144367L1416.797027885089 355.0049144144367Q1421.2903709282186 356.752325597876 1425.6727672295424 358.99899711944073Q1430.0551635308661 361.24566864100547 1433.66093263955 364.15802061340423Q1437.2667017482345 367.0981092712544 1439.818476809765 370.89803517809844Q1442.3425151858437 374.6979610849425 1443.119142378483 379.38546092623193L1443.119142378483 379.38546092623193Q1442.7308287821634 380.55040171519147 1442.2593051294893 380.24529817522586Q1441.7600447913637 379.96793132071167 1441.371731195044 380.55040171519147L1441.371731195044 380.55040171519147Q1442.1483583876839 381.52118570599106 1442.2593051294893 381.90949930231085Q1442.3425151858437 382.2978128986307 1442.2593051294893 382.68612649495054Q1442.1483583876839 383.0744400912704 1442.1483583876839 383.7678572275558Q1442.1483583876839 384.4612743638412 1442.7308287821634 385.6262151528007L1442.7308287821634 385.6262151528007Q1441.954201589524 385.4320583546408 1441.6768347350098 385.8203719509606Q1441.371731195044 386.2086855472804 1440.4009472042444 385.8203719509606L1440.4009472042444 385.8203719509606Q1441.1775743968842 387.9560967307197 1440.90020754237 389.3151943178391Q1440.5951040024042 390.70202859040995 1440.0126336079247 391.7560226375638Q1439.4301632134448 392.837753370169 1439.041849617125 394.1136409009342Q1438.6535360208054 395.36179174624795 1439.236006415285 397.3310964132985L1439.236006415285 397.3310964132985Q1438.6535360208054 397.3310964132985 1438.3484324808396 397.6084632678127Q1438.0710656263254 397.9135668077783 1437.8769088281656 398.1909336622924Q1437.6827520300058 398.49603720225804 1437.37764849004 398.77340405677216Q1437.0725449500746 399.0785075967378 1436.4900745555947 398.8843507985778L1436.4900745555947 398.8843507985778Q1437.0725449500746 403.18353704354746 1436.8783881519144 407.4549866030656Q1436.6842313537545 411.7541728480352 1436.6010212974002 416.136569149359Q1436.4900745555947 420.51896545068286 1436.6842313537545 425.3174120337779Q1436.8783881519144 430.08812193142154 1438.0710656263254 435.1639353690308L1438.0710656263254 435.1639353690308Q1445.088447045534 431.0589059222212 1449.2766865486979 424.6239948974925Q1453.4649260518618 418.18908387276383 1456.099911169746 410.20091846275585Q1458.7348962876308 402.18501636729644 1460.0939938747501 393.0319101683289Q1461.4530914618695 383.85106728391 1463.0340825326002 374.3096474886227L1463.0340825326002 374.3096474886227Q1464.7814937160397 372.56223630518343 1465.7522777068393 370.01046124365314Q1466.723061697639 367.4864228675742 1467.4996888902783 364.6572809515297Q1468.2763160829181 361.8281390354852 1469.080679961009 358.99899711944073Q1469.857307153649 356.16985520339625 1471.0222479426084 353.83997362547717L1471.0222479426084 353.83997362547717Q1473.9345999150073 354.2282872217971 1475.987114638412 355.67059486527074Q1478.0396293618169 357.1406391941958 1479.7870405452559 358.8048403212808Q1481.5621884141465 360.4690414483658 1483.5037563957458 361.91134909183944Q1485.445324377345 363.38139342076454 1488.3854130351956 363.7697070170844L1488.3854130351956 363.7697070170844Q1490.715294613114 367.0981092712544 1492.6568625947134 370.20461804181303Q1494.6261672617643 373.3388634978231 1495.2086376562438 376.83368586470164L1495.2086376562438 376.83368586470164Q1494.2378536654442 378.41467693543234 1493.7385933273185 380.3562449170315Q1493.2393329891934 382.2978128986307 1492.6568625947134 384.2671175656813Q1492.074392200234 386.2086855472804 1491.1036082094342 387.8728866743654Q1490.1328242186346 389.50935111599904 1488.3854130351956 390.70202859040995L1488.3854130351956 390.70202859040995Q1487.8029426407156 395.7501053425678 1486.9153687062703 399.9660815311831Q1486.027794771825 404.154321034347 1485.1679575228309 408.23161379570524Q1484.2803835883856 412.3366432425149 1483.697913193906 416.71903954383873Q1483.115442799426 421.1014358451626 1483.309599597586 426.37140608093176L1483.309599597586 426.37140608093176Q1481.7563452123068 430.86474912406123 1479.9811973434162 435.94056256167045Q1478.2337861599767 441.0163759992798 1477.263002169177 445.09366876063797L1477.263002169177 445.09366876063797Q1474.1287567131671 447.6454438221683 1472.3813455297277 451.1402661890468Q1470.6339343462887 454.6628252413767 1468.6646296792383 458.1576476082552L1468.6646296792383 458.1576476082552Q1467.8880024865985 458.9620114863463 1467.6938456884386 458.545961204575Q1467.4996888902783 458.1576476082552 1466.3347481013188 457.9634908100953L1466.3347481013188 457.9634908100953Q1466.5289048994791 458.74011800273496 1466.3347481013188 459.15616828450624Q1466.140591303159 459.544481880826 1465.8632244486453 459.8218487353402Q1465.5581209086795 460.12695227530577 1465.4471741668735 460.7094226697855Q1465.3639641105196 461.29189306426525 1465.7522777068393 462.2626770550649L1465.7522777068393 462.2626770550649Q1463.0340825326002 463.4276178440244 1460.87062106739 465.5910793092349Q1458.7348962876308 467.72680408899396 1456.2940679679064 469.47421527243324Q1453.8532396481814 471.22162645587247 1450.4416273376573 471.83183353580364Q1447.0300150271332 472.4143039302834 1441.565887993204 470.4449992632328L1441.565887993204 470.4449992632328Q1433.5777225831957 464.59255863298387 1427.4201784129814 456.99270681929573Q1421.2903709282186 449.39285500560754 1417.3794982795685 438.8529145340692Z " fill="#3d155f" transform="matrix(0.5852026392599343,0,0,0.5852026392599343,0,64.46172556046588)"/></g></svg>